<svg width="172" height="50" viewBox="0 0 172 50" fill="none" xmlns="http://www.w3.org/2000/svg">
<g id="App Store">
<g id="Group">
<path id="BG" d="M170.476 44.2337C170.476 46.8982 168.294 49.0566 165.595 49.0566H5.84042C3.14239 49.0566 0.952393 46.8982 0.952393 44.2337V5.77256C0.952393 3.10926 3.14239 0.943359 5.84042 0.943359H165.593C168.294 0.943359 170.475 3.10926 170.475 5.77256L170.476 44.2337Z" fill="white"/>
<path id="Border" d="M165.079 1.00156C168.019 1.00156 170.411 3.35625 170.411 6.25V43.75C170.411 46.6438 168.019 48.9984 165.079 48.9984H6.34921C3.40952 48.9984 1.01746 46.6438 1.01746 43.75V6.25C1.01746 3.35625 3.40952 1.00156 6.34921 1.00156H165.079ZM165.079 3.8147e-06H6.34921C2.85873 3.8147e-06 0 2.81407 0 6.25V43.75C0 47.1859 2.85873 50 6.34921 50H165.079C168.57 50 171.429 47.1859 171.429 43.75V6.25C171.429 2.81407 168.57 3.8147e-06 165.079 3.8147e-06Z" fill="#A6A6A6"/>
<g id="Icon">
<g id="Vector">
<path d="M38.2578 24.73C38.221 20.7012 41.6089 18.7412 41.7638 18.65C39.8451 15.8962 36.8711 15.52 35.826 15.49C33.3283 15.2312 30.9054 16.9612 29.633 16.9612C28.3352 16.9612 26.3759 15.515 24.2641 15.5575C21.5467 15.5987 19.0044 17.1475 17.6102 19.5525C14.7327 24.4562 16.8787 31.6625 19.6356 35.6262C21.0146 37.5675 22.626 39.735 24.7352 39.6587C26.7987 39.575 27.5695 38.3637 30.0597 38.3637C32.527 38.3637 33.2508 39.6587 35.4019 39.61C37.6165 39.575 39.0108 37.66 40.3416 35.7012C41.9352 33.4762 42.5752 31.285 42.6006 31.1725C42.5486 31.155 38.2997 29.5587 38.2578 24.73Z" fill="black"/>
<path d="M34.1943 12.8825C35.3041 11.5162 36.0635 9.65749 35.8527 7.77124C34.2463 7.84124 32.2375 8.86499 31.0806 10.2012C30.0571 11.3787 29.1429 13.3087 29.379 15.1237C31.1835 15.2562 33.0362 14.2275 34.1943 12.8825Z" fill="black"/>
</g>
</g>
<g id="Download on the">
<path id="D" d="M62.2857 12.5114C62.2857 13.9826 61.8375 15.0901 60.9423 15.8339C60.113 16.5201 58.9346 16.8639 57.4083 16.8639C56.6515 16.8639 56.0038 16.8314 55.4616 16.7664V8.72762C56.1689 8.61512 56.9308 8.55762 57.7537 8.55762C59.2076 8.55762 60.3035 8.86887 61.0426 9.49137C61.8705 10.1951 62.2857 11.2014 62.2857 12.5114ZM60.8826 12.5476C60.8826 11.5939 60.6261 10.8626 60.113 10.3526C59.6 9.84387 58.8508 9.58887 57.8642 9.58887C57.4451 9.58887 57.0883 9.61637 56.7924 9.67387V15.7851C56.9562 15.8101 57.2559 15.8214 57.6915 15.8214C58.7099 15.8214 59.4959 15.5426 60.0496 14.9851C60.6032 14.4276 60.8826 13.6151 60.8826 12.5476Z" fill="black"/>
<path id="o" d="M69.7257 13.7963C69.7257 14.7026 69.4629 15.4451 68.9372 16.0276C68.3861 16.6263 67.6559 16.9251 66.7442 16.9251C65.8654 16.9251 65.1657 16.6388 64.6438 16.0638C64.1232 15.4901 63.8629 14.7663 63.8629 13.8938C63.8629 12.9813 64.1308 12.2326 64.6692 11.6513C65.2076 11.0701 65.9315 10.7788 66.8432 10.7788C67.7219 10.7788 68.428 11.0651 68.9626 11.6388C69.4705 12.1963 69.7257 12.9163 69.7257 13.7963ZM68.3454 13.8388C68.3454 13.2951 68.2261 12.8288 67.9886 12.4401C67.7092 11.9701 67.3118 11.7351 66.795 11.7351C66.2604 11.7351 65.854 11.9701 65.5746 12.4401C65.3359 12.8288 65.2178 13.3026 65.2178 13.8626C65.2178 14.4063 65.3372 14.8726 65.5746 15.2613C65.8629 15.7313 66.2642 15.9663 66.7823 15.9663C67.2902 15.9663 67.6889 15.7276 67.9759 15.2488C68.2223 14.8526 68.3454 14.3826 68.3454 13.8388Z" fill="black"/>
<path id="w" d="M79.7016 10.8989L77.8286 16.7914H76.6095L75.8337 14.2327C75.6368 13.5939 75.4768 12.9589 75.3524 12.3289H75.3283C75.2127 12.9764 75.0527 13.6102 74.847 14.2327L74.0229 16.7914H72.7899L71.0286 10.8989H72.3962L73.073 13.7002C73.2368 14.3627 73.3715 14.9939 73.4794 15.5914H73.5035C73.6026 15.0989 73.7664 14.4714 73.9975 13.7127L74.847 10.9002H75.9315L76.7454 13.6527C76.9422 14.3239 77.1022 14.9702 77.2254 15.5927H77.2622C77.3524 14.9864 77.4883 14.3402 77.6686 13.6527L78.3949 10.9002H79.7016V10.8989Z" fill="black"/>
<path id="n" d="M86.6007 16.7914H85.2699V13.4164C85.2699 12.3764 84.8686 11.8564 84.0635 11.8564C83.6686 11.8564 83.3499 11.9989 83.1023 12.2851C82.8572 12.5714 82.7327 12.9089 82.7327 13.2951V16.7901H81.4019V12.5826C81.4019 12.0651 81.3854 11.5039 81.3537 10.8964H82.5232L82.5854 11.8176H82.6223C82.7772 11.5314 83.0083 11.2951 83.3118 11.1064C83.6724 10.8864 84.0762 10.7751 84.5181 10.7751C85.0769 10.7751 85.5416 10.9526 85.9111 11.3089C86.3708 11.7451 86.6007 12.3964 86.6007 13.2614V16.7914Z" fill="black"/>
<path id="l" d="M90.2705 16.7913H88.941V8.19507H90.2705V16.7913Z" fill="black"/>
<path id="o_2" d="M98.1054 13.7963C98.1054 14.7026 97.8426 15.4451 97.3168 16.0276C96.7657 16.6263 96.0343 16.9251 95.1238 16.9251C94.2438 16.9251 93.5441 16.6388 93.0235 16.0638C92.5029 15.4901 92.2426 14.7663 92.2426 13.8938C92.2426 12.9813 92.5105 12.2326 93.0489 11.6513C93.5873 11.0701 94.3111 10.7788 95.2216 10.7788C96.1016 10.7788 96.8064 11.0651 97.3422 11.6388C97.8502 12.1963 98.1054 12.9163 98.1054 13.7963ZM96.7238 13.8388C96.7238 13.2951 96.6045 12.8288 96.367 12.4401C96.0889 11.9701 95.6902 11.7351 95.1746 11.7351C94.6387 11.7351 94.2324 11.9701 93.9543 12.4401C93.7156 12.8288 93.5975 13.3026 93.5975 13.8626C93.5975 14.4063 93.7168 14.8726 93.9543 15.2613C94.2426 15.7313 94.6438 15.9663 95.1619 15.9663C95.6699 15.9663 96.0673 15.7276 96.3543 15.2488C96.6019 14.8526 96.7238 14.3826 96.7238 13.8388Z" fill="black"/>
<path id="a" d="M104.546 16.7913H103.351L103.252 16.1126H103.215C102.806 16.6538 102.224 16.9251 101.467 16.9251C100.902 16.9251 100.444 16.7463 100.1 16.3913C99.788 16.0688 99.6318 15.6676 99.6318 15.1913C99.6318 14.4713 99.9365 13.9226 100.55 13.5426C101.162 13.1626 102.023 12.9763 103.131 12.9851V12.8751C103.131 12.0988 102.717 11.7113 101.888 11.7113C101.298 11.7113 100.777 11.8576 100.328 12.1476L100.057 11.2876C100.613 10.9488 101.3 10.7788 102.111 10.7788C103.675 10.7788 104.46 11.5913 104.46 13.2163V15.3863C104.46 15.9751 104.489 16.4438 104.546 16.7913ZM103.164 14.7663V13.8576C101.697 13.8326 100.963 14.2288 100.963 15.0451C100.963 15.3526 101.046 15.5826 101.218 15.7363C101.389 15.8901 101.608 15.9663 101.868 15.9663C102.16 15.9663 102.433 15.8751 102.682 15.6938C102.932 15.5113 103.086 15.2801 103.143 14.9963C103.157 14.9326 103.164 14.8551 103.164 14.7663Z" fill="black"/>
<path id="d" d="M112.108 16.7913H110.927L110.865 15.8451H110.828C110.451 16.5651 109.808 16.9251 108.905 16.9251C108.184 16.9251 107.584 16.6463 107.107 16.0888C106.631 15.5313 106.394 14.8076 106.394 13.9188C106.394 12.9651 106.651 12.1926 107.17 11.6026C107.671 11.0526 108.286 10.7776 109.017 10.7776C109.821 10.7776 110.384 11.0438 110.704 11.5776H110.729V8.19507H112.061V15.2038C112.061 15.7776 112.076 16.3063 112.108 16.7913ZM110.729 14.3063V13.3238C110.729 13.1538 110.716 13.0163 110.692 12.9113C110.617 12.5963 110.456 12.3313 110.211 12.1176C109.963 11.9038 109.665 11.7963 109.321 11.7963C108.824 11.7963 108.436 11.9901 108.15 12.3788C107.867 12.7676 107.723 13.2638 107.723 13.8701C107.723 14.4526 107.859 14.9251 108.132 15.2888C108.42 15.6763 108.809 15.8701 109.295 15.8701C109.732 15.8701 110.081 15.7088 110.347 15.3851C110.603 15.0863 110.729 14.7263 110.729 14.3063Z" fill="black"/>
<path id="o_3" d="M123.49 13.7963C123.49 14.7026 123.227 15.4451 122.701 16.0276C122.15 16.6263 121.421 16.9251 120.508 16.9251C119.631 16.9251 118.931 16.6388 118.408 16.0638C117.887 15.4901 117.627 14.7663 117.627 13.8938C117.627 12.9813 117.895 12.2326 118.433 11.6513C118.971 11.0701 119.695 10.7788 120.608 10.7788C121.486 10.7788 122.193 11.0651 122.726 11.6388C123.234 12.1963 123.49 12.9163 123.49 13.7963ZM122.111 13.8388C122.111 13.2951 121.991 12.8288 121.754 12.4401C121.473 11.9701 121.077 11.7351 120.559 11.7351C120.025 11.7351 119.619 11.9701 119.338 12.4401C119.1 12.8288 118.982 13.3026 118.982 13.8626C118.982 14.4063 119.101 14.8726 119.338 15.2613C119.627 15.7313 120.028 15.9663 120.546 15.9663C121.054 15.9663 121.454 15.7276 121.741 15.2488C121.986 14.8526 122.111 14.3826 122.111 13.8388Z" fill="black"/>
<path id="n_2" d="M130.645 16.7914H129.316V13.4164C129.316 12.3764 128.914 11.8564 128.108 11.8564C127.713 11.8564 127.394 11.9989 127.148 12.2851C126.902 12.5714 126.778 12.9089 126.778 13.2951V16.7901H125.446V12.5826C125.446 12.0651 125.431 11.5039 125.399 10.8964H126.568L126.63 11.8176H126.667C126.823 11.5314 127.054 11.2951 127.356 11.1064C127.718 10.8864 128.121 10.7751 128.564 10.7751C129.121 10.7751 129.586 10.9526 129.956 11.3089C130.417 11.7451 130.645 12.3964 130.645 13.2614V16.7914Z" fill="black"/>
<path id="t" d="M139.601 11.8801H138.136V14.7426C138.136 15.4701 138.396 15.8339 138.912 15.8339C139.151 15.8339 139.349 15.8139 139.505 15.7726L139.539 16.7664C139.276 16.8639 138.931 16.9126 138.505 16.9126C137.98 16.9126 137.571 16.7551 137.275 16.4401C136.978 16.1251 136.831 15.5951 136.831 14.8514V11.8801H135.956V10.8989H136.831V9.8189L138.135 9.4314V10.8976H139.6V11.8801H139.601Z" fill="black"/>
<path id="h" d="M146.646 16.7913H145.314V13.4413C145.314 12.3851 144.913 11.8563 144.109 11.8563C143.492 11.8563 143.07 12.1626 142.839 12.7751C142.8 12.9038 142.777 13.0613 142.777 13.2463V16.7901H141.448V8.19507H142.777V11.7463H142.803C143.222 11.1001 143.822 10.7776 144.601 10.7776C145.152 10.7776 145.608 10.9551 145.97 11.3113C146.42 11.7551 146.646 12.4151 146.646 13.2876V16.7913Z" fill="black"/>
<path id="e" d="M153.914 13.5663C153.914 13.8013 153.896 13.9988 153.864 14.1601H149.873C149.891 14.7426 150.081 15.1863 150.451 15.4938C150.789 15.7688 151.224 15.9063 151.757 15.9063C152.348 15.9063 152.886 15.8138 153.371 15.6276L153.58 16.5376C153.012 16.7801 152.344 16.9013 151.571 16.9013C150.644 16.9013 149.914 16.6326 149.385 16.0951C148.855 15.5576 148.592 14.8363 148.592 13.9313C148.592 13.0426 148.837 12.3026 149.331 11.7126C149.846 11.0826 150.544 10.7676 151.424 10.7676C152.284 10.7676 152.938 11.0826 153.38 11.7126C153.737 12.2126 153.914 12.8313 153.914 13.5663ZM152.644 13.2276C152.654 12.8388 152.566 12.5038 152.386 12.2213C152.155 11.8576 151.803 11.6751 151.327 11.6751C150.893 11.6751 150.538 11.8526 150.268 12.2088C150.047 12.4926 149.916 12.8313 149.873 13.2276H152.644Z" fill="black"/>
</g>
<g id="App Store_2">
<path id="A" d="M68.1206 39.3799H65.2368L63.6571 34.4936H58.1664L56.6616 39.3799H53.854L59.294 22.7449H62.654L68.1206 39.3799ZM63.181 32.4436L61.7524 28.0999C61.6013 27.6561 61.3181 26.6111 60.9003 24.9661H60.8495C60.6832 25.6736 60.4152 26.7186 60.047 28.0999L58.6438 32.4436H63.181Z" fill="black"/>
<path id="p" d="M82.1105 33.2349C82.1105 35.2749 81.5505 36.8874 80.4305 38.0712C79.4273 39.1249 78.1816 39.6512 76.6946 39.6512C75.0895 39.6512 73.9365 39.0837 73.2343 37.9487H73.1835V44.2674H70.4762V31.3337C70.4762 30.0512 70.4419 28.7349 70.3759 27.3849H72.7568L72.9079 29.2862H72.9587C73.8616 27.8537 75.2317 27.1387 77.0705 27.1387C78.5079 27.1387 79.7079 27.6974 80.6679 28.8162C81.6305 29.9362 82.1105 31.4087 82.1105 33.2349ZM79.3524 33.3324C79.3524 32.1649 79.0857 31.2024 78.5498 30.4449C77.9644 29.6549 77.1784 29.2599 76.193 29.2599C75.5251 29.2599 74.9181 29.4799 74.3759 29.9137C73.8324 30.3512 73.4768 30.9224 73.3105 31.6299C73.2266 31.9599 73.1847 32.2299 73.1847 32.4424V34.4424C73.1847 35.3149 73.4565 36.0512 74 36.6524C74.5435 37.2537 75.2495 37.5537 76.1181 37.5537C77.1378 37.5537 77.9314 37.1662 78.499 36.3937C79.0679 35.6199 79.3524 34.5999 79.3524 33.3324Z" fill="black"/>
<path id="p_2" d="M96.1257 33.2349C96.1257 35.2749 95.5657 36.8874 94.4445 38.0712C93.4426 39.1249 92.1968 39.6512 90.7099 39.6512C89.1048 39.6512 87.9518 39.0837 87.2508 37.9487H87.2V44.2674H84.4927V31.3337C84.4927 30.0512 84.4584 28.7349 84.3924 27.3849H86.7733L86.9245 29.2862H86.9752C87.8768 27.8537 89.247 27.1387 91.087 27.1387C92.5232 27.1387 93.7232 27.6974 94.6857 28.8162C95.6445 29.9362 96.1257 31.4087 96.1257 33.2349ZM93.3676 33.3324C93.3676 32.1649 93.0997 31.2024 92.5638 30.4449C91.9784 29.6549 91.1949 29.2599 90.2083 29.2599C89.5391 29.2599 88.9334 29.4799 88.3899 29.9137C87.8464 30.3512 87.4921 30.9224 87.3257 31.6299C87.2432 31.9599 87.2 32.2299 87.2 32.4424V34.4424C87.2 35.3149 87.4718 36.0512 88.0127 36.6524C88.5562 37.2524 89.2622 37.5537 90.1334 37.5537C91.153 37.5537 91.9467 37.1662 92.5143 36.3937C93.0832 35.6199 93.3676 34.5999 93.3676 33.3324Z" fill="black"/>
<path id="S" d="M111.796 34.715C111.796 36.13 111.297 37.2812 110.295 38.17C109.194 39.1412 107.661 39.6262 105.691 39.6262C103.873 39.6262 102.415 39.2812 101.312 38.59L101.939 36.3687C103.128 37.0762 104.432 37.4312 105.853 37.4312C106.872 37.4312 107.666 37.2037 108.236 36.7512C108.804 36.2987 109.087 35.6912 109.087 34.9337C109.087 34.2587 108.853 33.69 108.385 33.2287C107.919 32.7675 107.14 32.3387 106.053 31.9425C103.095 30.8562 101.617 29.265 101.617 27.1725C101.617 25.805 102.135 24.6837 103.172 23.8112C104.206 22.9375 105.585 22.5012 107.309 22.5012C108.847 22.5012 110.124 22.765 111.144 23.2912L110.467 25.4637C109.515 24.9537 108.438 24.6987 107.233 24.6987C106.281 24.6987 105.537 24.93 105.003 25.39C104.552 25.8012 104.326 26.3025 104.326 26.8962C104.326 27.5537 104.584 28.0975 105.102 28.525C105.553 28.92 106.372 29.3475 107.561 29.8087C109.015 30.385 110.083 31.0587 110.77 31.8312C111.454 32.6012 111.796 33.565 111.796 34.715Z" fill="black"/>
<path id="t_2" d="M120.747 29.385H117.763V35.2087C117.763 36.69 118.288 37.43 119.342 37.43C119.826 37.43 120.227 37.3887 120.545 37.3062L120.62 39.33C120.086 39.5262 119.384 39.625 118.514 39.625C117.445 39.625 116.61 39.3037 116.006 38.6625C115.406 38.02 115.104 36.9425 115.104 35.4287V29.3825H113.326V27.3825H115.104V25.1862L117.763 24.3962V27.3825H120.747V29.385Z" fill="black"/>
<path id="o_4" d="M134.211 33.2836C134.211 35.1274 133.675 36.6411 132.606 37.8249C131.484 39.0436 129.996 39.6511 128.141 39.6511C126.353 39.6511 124.93 39.0674 123.868 37.8999C122.806 36.7324 122.276 35.2586 122.276 33.4824C122.276 31.6236 122.822 30.1011 123.917 28.9174C125.011 27.7324 126.486 27.1399 128.342 27.1399C130.13 27.1399 131.568 27.7236 132.654 28.8924C133.693 30.0261 134.211 31.4899 134.211 33.2836ZM131.402 33.3699C131.402 32.2636 131.162 31.3149 130.676 30.5236C130.108 29.5661 129.296 29.0886 128.245 29.0886C127.157 29.0886 126.33 29.5674 125.763 30.5236C125.276 31.3161 125.036 32.2799 125.036 33.4199C125.036 34.5261 125.276 35.4749 125.763 36.2649C126.348 37.2224 127.166 37.6999 128.221 37.6999C129.255 37.6999 130.066 37.2124 130.651 36.2399C131.15 35.4336 131.402 34.4749 131.402 33.3699Z" fill="black"/>
<path id="r" d="M143.011 29.7287C142.743 29.6799 142.457 29.6549 142.157 29.6549C141.205 29.6549 140.469 30.0087 139.95 30.7174C139.5 31.3424 139.274 32.1324 139.274 33.0862V39.3799H136.568L136.593 31.1624C136.593 29.7799 136.559 28.5212 136.491 27.3862H138.85L138.949 29.6812H139.024C139.309 28.8924 139.76 28.2574 140.377 27.7812C140.98 27.3524 141.632 27.1387 142.334 27.1387C142.584 27.1387 142.81 27.1562 143.011 27.1874V29.7287Z" fill="black"/>
<path id="e_2" d="M155.119 32.815C155.119 33.2925 155.087 33.695 155.02 34.0237H146.898C146.93 35.2087 147.322 36.115 148.076 36.74C148.761 37.2987 149.646 37.5787 150.733 37.5787C151.935 37.5787 153.032 37.39 154.019 37.0112L154.443 38.8612C153.29 39.3562 151.929 39.6025 150.358 39.6025C148.469 39.6025 146.985 39.055 145.906 37.9612C144.829 36.8675 144.29 35.3987 144.29 33.5562C144.29 31.7475 144.791 30.2412 145.796 29.04C146.847 27.7575 148.268 27.1162 150.056 27.1162C151.812 27.1162 153.142 27.7575 154.044 29.04C154.759 30.0587 155.119 31.3187 155.119 32.815ZM152.537 32.1237C152.555 31.3337 152.378 30.6512 152.011 30.075C151.543 29.3337 150.823 28.9637 149.854 28.9637C148.969 28.9637 148.249 29.325 147.699 30.05C147.248 30.6262 146.98 31.3175 146.898 32.1225H152.537V32.1237Z" fill="black"/>
</g>
</g>
</g>
</svg>
