<svg width="48" height="49" viewBox="0 0 48 49" fill="none" xmlns="http://www.w3.org/2000/svg">
<g id="car(3) 1">
<path id="Vector" d="M46.3383 26.3956C46.0008 22.6072 45.4448 21.8694 45.2348 21.5919C44.752 20.9506 43.9795 20.5316 43.162 20.0919C43.1158 20.0674 43.0759 20.0326 43.0454 19.9901C43.015 19.9476 42.9948 19.8985 42.9865 19.8469C42.9783 19.7953 42.9821 19.7424 42.9977 19.6925C43.0134 19.6426 43.0404 19.597 43.0767 19.5594C43.2281 19.4058 43.3445 19.2213 43.4178 19.0186C43.4911 18.8158 43.5196 18.5995 43.5014 18.3847C43.4661 18.0037 43.289 17.6499 43.0051 17.3934C42.7211 17.1369 42.3512 16.9965 41.9686 17H40.5061C40.4434 17.0004 40.3808 17.0044 40.3186 17.0122C40.2759 16.9937 40.2317 16.9789 40.1864 16.9681C39.3201 15.1372 38.1342 12.6303 35.6761 11.4069C32.0301 9.59375 25.3139 9.5 24.0014 9.5C22.6889 9.5 15.9726 9.59375 12.3314 11.4041C9.87327 12.6275 8.68733 15.1344 7.82108 16.9653L7.81358 16.9803C7.77038 16.9864 7.72795 16.9971 7.68702 17.0122C7.62481 17.0044 7.56221 17.0004 7.49952 17H6.03421C5.65161 16.9965 5.28166 17.1369 4.99774 17.3934C4.71381 17.6499 4.53665 18.0037 4.5014 18.3847C4.48474 18.599 4.51457 18.8145 4.58884 19.0162C4.6631 19.218 4.78006 19.4013 4.93171 19.5538C4.96799 19.5914 4.99502 19.637 5.01067 19.6869C5.02632 19.7368 5.03016 19.7896 5.02189 19.8413C5.01361 19.8929 4.99345 19.9419 4.963 19.9844C4.93254 20.027 4.89263 20.0618 4.8464 20.0863C4.0289 20.5287 3.25265 20.9478 2.77358 21.5863C2.56358 21.8675 2.00858 22.6016 1.67014 26.39C1.48264 28.5219 1.45452 30.7288 1.60171 32.15C1.91015 35.1031 2.48858 36.8881 2.51296 36.9622C2.60172 37.2317 2.76511 37.4705 2.98415 37.6509C3.2032 37.8313 3.46892 37.9458 3.75046 37.9812V38C3.75046 38.3978 3.90849 38.7794 4.1898 39.0607C4.4711 39.342 4.85263 39.5 5.25046 39.5H10.5005C10.8983 39.5 11.2798 39.342 11.5611 39.0607C11.8424 38.7794 12.0005 38.3978 12.0005 38C12.8076 38 13.3692 37.8556 13.9645 37.7019C14.824 37.4703 15.7025 37.3162 16.5895 37.2416C19.4498 36.9688 22.2942 36.875 24.0014 36.875C25.6739 36.875 28.6439 36.9688 31.5089 37.2416C32.3994 37.3164 33.2814 37.4711 34.1442 37.7038C34.7142 37.85 35.2551 37.985 36.0042 37.9991C36.0042 38.3969 36.1622 38.7784 36.4436 39.0597C36.7249 39.341 37.1064 39.4991 37.5042 39.4991H42.7542C43.152 39.4991 43.5336 39.341 43.8149 39.0597C44.0962 38.7784 44.2542 38.3969 44.2542 37.9991V37.9878C44.5364 37.9531 44.8029 37.8388 45.0227 37.6584C45.2425 37.478 45.4064 37.2388 45.4955 36.9688C45.5198 36.8947 46.0983 35.1097 46.4067 32.1566C46.5539 30.7344 46.5276 28.5312 46.3383 26.3956ZM10.5323 18.2478C11.2823 16.6541 12.1401 14.8503 13.6673 14.09C15.8742 12.9913 20.4483 12.4962 24.0014 12.4962C27.5545 12.4962 32.1286 12.9875 34.3355 14.09C35.8626 14.8503 36.7167 16.655 37.4705 18.2478L37.5642 18.4513C37.619 18.5671 37.6433 18.695 37.6346 18.8228C37.6259 18.9507 37.5847 19.0742 37.5147 19.1815C37.4448 19.2889 37.3485 19.3765 37.2351 19.4361C37.1216 19.4957 36.9948 19.5252 36.8667 19.5219C33.7514 19.4375 27.1889 19.1675 24.0014 19.1675C20.8139 19.1675 14.2514 19.4441 11.1314 19.5284C11.0033 19.5318 10.8765 19.5023 10.7631 19.4427C10.6496 19.3831 10.5533 19.2955 10.4834 19.1881C10.4134 19.0807 10.3722 18.9572 10.3635 18.8294C10.3548 18.7016 10.3791 18.5736 10.4339 18.4578C10.4667 18.3884 10.5014 18.3181 10.5323 18.2478ZM11.6508 25.7131C10.0381 25.9072 8.41509 26.003 6.79077 26C5.79702 26 4.77233 25.7188 4.58202 24.8337C4.45171 24.2384 4.46577 23.9038 4.53608 23.5672C4.59514 23.2812 4.6889 23.0731 5.15765 23C6.3764 22.8125 7.05796 23.0478 9.05296 23.6356C10.3758 24.0247 11.3301 24.5431 11.8739 24.9537C12.1467 25.1562 12.0014 25.685 11.6508 25.7131ZM32.4051 33.4006C31.1714 33.5413 28.7039 33.4897 24.0295 33.4897C19.3551 33.4897 16.8886 33.5413 15.6548 33.4006C14.3817 33.2591 12.7589 32.0553 13.867 30.9828C14.6048 30.2759 16.3261 29.7472 18.6183 29.45C20.9105 29.1528 21.8808 29 24.0201 29C26.1595 29 27.0314 29.0938 29.422 29.4509C31.8126 29.8081 33.6192 30.3434 34.1733 30.9837C35.1839 32.1313 33.6773 33.2516 32.4051 33.4062V33.4006ZM43.4208 24.8328C43.2333 25.7216 42.202 25.9991 41.212 25.9991C39.5566 25.9994 37.9026 25.9037 36.2583 25.7122C35.9714 25.685 35.8383 25.1816 36.1289 24.9528C36.6642 24.5319 37.6289 24.0238 38.9498 23.6347C40.9448 23.0469 42.0951 22.8116 43.0833 23.0075C43.3242 23.0553 43.4517 23.3141 43.4667 23.4762C43.5328 23.9278 43.5173 24.3877 43.4208 24.8337V24.8328Z" fill="#FBECEC"/>
</g>
</svg>
