<svg width="172" height="50" viewBox="0 0 172 50" fill="none" xmlns="http://www.w3.org/2000/svg">
<g id="Google Play">
<g id="Group">
<path id="BG" d="M165.508 50H6.77778C3.2873 50 0.428574 47.1859 0.428574 43.75V6.25C0.428574 2.81406 3.2873 0 6.77778 0H165.508C168.998 0 171.857 2.81406 171.857 6.25V43.75C171.857 47.1859 168.998 50 165.508 50Z" fill="white"/>
<path id="Border" d="M165.508 1.00156C168.448 1.00156 170.84 3.35625 170.84 6.25V43.75C170.84 46.6438 168.448 48.9984 165.508 48.9984H6.77778C3.8381 48.9984 1.44603 46.6438 1.44603 43.75V6.25C1.44603 3.35625 3.8381 1.00156 6.77778 1.00156H165.508ZM165.508 0H6.77778C3.2873 0 0.428574 2.81406 0.428574 6.25V43.75C0.428574 47.1859 3.2873 50 6.77778 50H165.508C168.998 50 171.857 47.1859 171.857 43.75V6.25C171.857 2.81406 168.998 0 165.508 0Z" fill="#A6A6A6"/>
<g id="Icon">
<path id="Vector" d="M12.727 9.42348C12.354 9.80786 12.1381 10.4063 12.1381 11.1813V38.825C12.1381 39.6 12.354 40.1985 12.727 40.5829L12.8191 40.6672L28.5556 25.1829V24.8172L12.8191 9.33286L12.727 9.42348Z" fill="black"/>
<path id="Vector_2" d="M35.7 30.3469L30.4603 25.1829V24.8172L35.7063 19.6532L35.8238 19.7204L42.0365 23.2C43.8095 24.1875 43.8095 25.8125 42.0365 26.8063L35.8238 30.2797L35.7 30.3469Z" fill="black"/>
<path id="Vector_3" d="M34.8714 31.2413L29.5079 25.9616L13.6794 41.5444C14.2683 42.1538 15.2286 42.2272 16.3206 41.6178L34.8714 31.2413Z" fill="black"/>
<path id="Vector_4" d="M34.8714 18.7589L16.3206 8.38233C15.2286 7.7792 14.2683 7.85264 13.6794 8.46201L29.5079 24.0386L34.8714 18.7589Z" fill="black"/>
</g>
<g id="GET IT ON">
<path id="G" d="M60.6412 12.8047C60.6412 13.8485 60.3238 14.6844 59.6984 15.3079C58.9793 16.0469 58.0428 16.4188 56.8952 16.4188C55.7984 16.4188 54.8619 16.0407 54.0936 15.2954C53.3238 14.5391 52.9397 13.611 52.9397 12.5C52.9397 11.3891 53.3238 10.461 54.0936 9.71099C54.8619 8.95942 55.7984 8.5813 56.8952 8.5813C57.4413 8.5813 57.9619 8.69224 58.4587 8.89849C58.9539 9.1063 59.3571 9.38755 59.6492 9.73442L58.9857 10.3938C58.4762 9.80161 57.7825 9.50942 56.8952 9.50942C56.0952 9.50942 55.4016 9.78442 54.8127 10.3391C54.2301 10.8954 53.9381 11.6157 53.9381 12.5C53.9381 13.3844 54.2301 14.111 54.8127 14.6672C55.4016 15.2157 56.0952 15.4969 56.8952 15.4969C57.7444 15.4969 58.4587 15.2157 59.0222 14.661C59.3936 14.2938 59.6047 13.7875 59.6603 13.1407H56.8952V12.2375H60.5841C60.6286 12.4329 60.6412 12.6219 60.6412 12.8047Z" fill="black" stroke="black" stroke-width="0.16" stroke-miterlimit="10"/>
<path id="E" d="M66.4936 9.67349H63.0285V12.0485H66.1524V12.9516H63.0285V15.3266H66.4936V16.2469H62.0476V8.75317H66.4936V9.67349Z" fill="black" stroke="black" stroke-width="0.16" stroke-miterlimit="10"/>
<path id="T" d="M70.6238 16.2469H69.6428V9.67349H67.5174V8.75317H72.7508V9.67349H70.6238V16.2469Z" fill="black" stroke="black" stroke-width="0.16" stroke-miterlimit="10"/>
<path id="I" d="M76.5381 16.2469V8.75317H77.5175V16.2469H76.5381Z" fill="black" stroke="black" stroke-width="0.16" stroke-miterlimit="10"/>
<path id="T_2" d="M81.8587 16.2469H80.8857V9.67349H78.7523V8.75317H83.992V9.67349H81.8587V16.2469Z" fill="black" stroke="black" stroke-width="0.16" stroke-miterlimit="10"/>
<path id="O" d="M93.9 15.2829C93.1492 16.0407 92.219 16.4188 91.1095 16.4188C89.9936 16.4188 89.0635 16.0407 88.3127 15.2829C87.5635 14.5266 87.1905 13.5985 87.1905 12.5C87.1905 11.4016 87.5635 10.4735 88.3127 9.71724C89.0635 8.95942 89.9936 8.5813 91.1095 8.5813C92.2127 8.5813 93.1428 8.95942 93.8936 9.72349C94.6492 10.486 95.0222 11.4079 95.0222 12.5C95.0222 13.5985 94.6492 14.5266 93.9 15.2829ZM89.0381 14.6547C89.6032 15.2157 90.2904 15.4969 91.1095 15.4969C91.9222 15.4969 92.6158 15.2157 93.1746 14.6547C93.7381 14.0938 94.0238 13.3735 94.0238 12.5C94.0238 11.6266 93.7381 10.9063 93.1746 10.3454C92.6158 9.78442 91.9222 9.50317 91.1095 9.50317C90.2904 9.50317 89.6032 9.78442 89.0381 10.3454C88.4746 10.9063 88.1889 11.6266 88.1889 12.5C88.1889 13.3735 88.4746 14.0938 89.0381 14.6547Z" fill="black" stroke="black" stroke-width="0.16" stroke-miterlimit="10"/>
<path id="N" d="M96.3984 16.2469V8.75317H97.5889L101.29 14.5813H101.333L101.29 13.1407V8.75317H102.27V16.2469H101.248L97.3714 10.1313H97.3285L97.3714 11.5782V16.2469H96.3984Z" fill="black" stroke="black" stroke-width="0.16" stroke-miterlimit="10"/>
</g>
<g id="Google Play_2">
<path id="Google Play_3" d="M86.9492 27.1907C83.9667 27.1907 81.5302 29.4251 81.5302 32.5079C81.5302 35.5657 83.9667 37.8235 86.9492 37.8235C89.9381 37.8235 92.3746 35.5657 92.3746 32.5079C92.3746 29.4251 89.9381 27.1907 86.9492 27.1907ZM86.9492 35.7297C85.3127 35.7297 83.9048 34.4001 83.9048 32.5079C83.9048 30.5907 85.3127 29.2844 86.9492 29.2844C88.5857 29.2844 90 30.5907 90 32.5079C90 34.4001 88.5857 35.7297 86.9492 35.7297ZM75.1254 27.1907C72.1365 27.1907 69.7063 29.4251 69.7063 32.5079C69.7063 35.5657 72.1365 37.8235 75.1254 37.8235C78.1127 37.8235 80.5444 35.5657 80.5444 32.5079C80.5444 29.4251 78.1127 27.1907 75.1254 27.1907ZM75.1254 35.7297C73.4873 35.7297 72.0746 34.4001 72.0746 32.5079C72.0746 30.5907 73.4873 29.2844 75.1254 29.2844C76.7619 29.2844 78.1698 30.5907 78.1698 32.5079C78.1698 34.4001 76.7619 35.7297 75.1254 35.7297ZM61.0556 28.8204V31.0797H66.5365C66.3762 32.3422 65.9476 33.2704 65.2905 33.9172C64.4905 34.6985 63.2444 35.5657 61.0556 35.5657C57.6825 35.5657 55.0413 32.886 55.0413 29.5657C55.0413 26.2454 57.6825 23.5657 61.0556 23.5657C62.8794 23.5657 64.2064 24.2672 65.1857 25.1766L66.8032 23.5844C65.4333 22.2969 63.6111 21.3079 61.0556 21.3079C56.4302 21.3079 52.5429 25.0126 52.5429 29.5657C52.5429 34.1188 56.4302 37.8235 61.0556 37.8235C63.5556 37.8235 65.4333 37.0172 66.9095 35.5047C68.4222 34.0157 68.8936 31.9219 68.8936 30.2313C68.8936 29.7063 68.8492 29.2235 68.7698 28.8204H61.0556ZM118.589 30.5719C118.143 29.3829 116.767 27.1907 113.963 27.1907C111.186 27.1907 108.873 29.3454 108.873 32.5079C108.873 35.486 111.162 37.8235 114.23 37.8235C116.711 37.8235 118.143 36.3344 118.732 35.4672L116.89 34.2594C116.276 35.1438 115.44 35.7297 114.23 35.7297C113.029 35.7297 112.167 35.1876 111.614 34.1188L118.838 31.1766L118.589 30.5719ZM111.224 32.3422C111.162 30.2922 112.841 29.2422 114.044 29.2422C114.987 29.2422 115.787 29.7063 116.054 30.3704L111.224 32.3422ZM105.352 37.5H107.727V21.8751H105.352V37.5ZM101.463 28.3751H101.384C100.851 27.7532 99.8333 27.1907 98.5444 27.1907C95.8397 27.1907 93.3667 29.5282 93.3667 32.5251C93.3667 35.5047 95.8397 37.8235 98.5444 37.8235C99.8333 37.8235 100.851 37.2563 101.384 36.6157H101.463V37.3782C101.463 39.411 100.36 40.5032 98.5809 40.5032C97.1301 40.5032 96.2302 39.4719 95.8587 38.6047L93.7936 39.4532C94.3889 40.8625 95.9651 42.5969 98.5809 42.5969C101.365 42.5969 103.714 40.9844 103.714 37.061V27.5141H101.463V28.3751ZM98.7476 35.7297C97.1111 35.7297 95.7413 34.3813 95.7413 32.5251C95.7413 30.6516 97.1111 29.2844 98.7476 29.2844C100.36 29.2844 101.632 30.6516 101.632 32.5251C101.632 34.3813 100.36 35.7297 98.7476 35.7297ZM129.706 21.8751H124.027V37.5H126.395V31.5797H129.706C132.336 31.5797 134.916 29.7063 134.916 26.7266C134.916 23.7485 132.33 21.8751 129.706 21.8751ZM129.768 29.4063H126.395V24.0485H129.768C131.536 24.0485 132.546 25.4938 132.546 26.7266C132.546 27.936 131.536 29.4063 129.768 29.4063ZM144.408 27.161C142.697 27.161 140.917 27.9047 140.186 29.5532L142.287 30.4204C142.74 29.5532 143.571 29.2719 144.451 29.2719C145.679 29.2719 146.925 29.9985 146.944 31.2813V31.4454C146.516 31.2016 145.598 30.8407 144.47 30.8407C142.206 30.8407 139.9 32.0672 139.9 34.3563C139.9 36.4501 141.754 37.7985 143.838 37.7985C145.432 37.7985 146.311 37.0907 146.863 36.2672H146.944V37.475H149.232V31.4813C149.232 28.711 147.13 27.161 144.408 27.161ZM144.122 35.7235C143.348 35.7235 142.268 35.3454 142.268 34.4001C142.268 33.1907 143.614 32.7266 144.779 32.7266C145.822 32.7266 146.311 32.9532 146.944 33.2516C146.759 34.6985 145.494 35.7235 144.122 35.7235ZM157.565 27.5032L154.843 34.2766H154.762L151.948 27.5032H149.394L153.622 36.9688L151.209 42.236H153.684L160.2 27.5032H157.565ZM136.217 37.5H138.592V21.8751H136.217V37.5Z" fill="black"/>
</g>
</g>
</g>
</svg>
