<svg width="24" height="24" viewBox="0 0 24 24" fill="none" xmlns="http://www.w3.org/2000/svg">
<g id="Group">
<path id="Vector" d="M12.0176 0H11.9629C5.35255 0 -0.00622559 5.36035 -0.00622559 11.9727V12.0273C-0.00622559 18.6397 5.35255 24 11.9629 24H12.0176C18.6279 24 23.9867 18.6397 23.9867 12.0273V11.9727C23.9867 5.36035 18.6279 0 12.0176 0Z" fill="white"/>
<g id="Group_2">
<path id="Vector_2" d="M15.7018 4.88281H8.2777C6.22666 4.88281 4.55809 6.55187 4.55809 8.60351V15.3975C4.55809 17.4491 6.22666 19.1182 8.2777 19.1182H15.7018C17.7528 19.1182 19.4214 17.4491 19.4214 15.3975V8.60351C19.4214 6.55187 17.7528 4.88281 15.7018 4.88281ZM5.87025 8.60351C5.87025 7.27583 6.95041 6.19536 8.2777 6.19536H15.7018C17.0291 6.19536 18.1092 7.27583 18.1092 8.60351V15.3975C18.1092 16.7252 17.0291 17.8056 15.7018 17.8056H8.2777C6.95041 17.8056 5.87025 16.7252 5.87025 15.3975V8.60351Z" fill="black"/>
<path id="Vector_3" d="M11.9897 15.4603C13.897 15.4603 15.4496 13.9082 15.4496 11.9995C15.4496 10.0908 13.8978 8.53857 11.9897 8.53857C10.0816 8.53857 8.52983 10.0908 8.52983 11.9995C8.52983 13.9082 10.0816 15.4603 11.9897 15.4603ZM11.9897 9.85196C13.1741 9.85196 14.1374 10.8156 14.1374 12.0003C14.1374 13.185 13.1741 14.1486 11.9897 14.1486C10.8053 14.1486 9.84199 13.185 9.84199 12.0003C9.84199 10.8156 10.8053 9.85196 11.9897 9.85196Z" fill="black"/>
<path id="Vector_4" d="M15.7698 9.09789C16.2834 9.09789 16.7021 8.67999 16.7021 8.1654C16.7021 7.65081 16.2843 7.23291 15.7698 7.23291C15.2554 7.23291 14.8376 7.65081 14.8376 8.1654C14.8376 8.67999 15.2554 9.09789 15.7698 9.09789Z" fill="black"/>
</g>
</g>
</svg>
