<svg width="172" height="50" viewBox="0 0 172 50" fill="none" xmlns="http://www.w3.org/2000/svg">
<g id="Group">
<path id="BG" d="M165.079 50H6.34921C2.85873 50 0 47.1859 0 43.75V6.25C0 2.81406 2.85873 0 6.34921 0H165.079C168.57 0 171.429 2.81406 171.429 6.25V43.75C171.429 47.1859 168.57 50 165.079 50Z" fill="#FBECEC"/>
<path id="Border" d="M165.079 1.00156C168.019 1.00156 170.411 3.35625 170.411 6.25V43.75C170.411 46.6438 168.019 48.9984 165.079 48.9984H6.34921C3.40952 48.9984 1.01746 46.6438 1.01746 43.75V6.25C1.01746 3.35625 3.40952 1.00156 6.34921 1.00156H165.079ZM165.079 0H6.34921C2.85873 0 0 2.81406 0 6.25V43.75C0 47.1859 2.85873 50 6.34921 50H165.079C168.57 50 171.429 47.1859 171.429 43.75V6.25C171.429 2.81406 168.57 0 165.079 0Z" fill="#A6A6A6"/>
<g id="Icon">
<path id="Vector" d="M13.2508 9.42324C12.8778 9.80761 12.6619 10.4061 12.6619 11.1811V38.8248C12.6619 39.5998 12.8778 40.1982 13.2508 40.5826L13.3429 40.667L29.0794 25.1826V24.817L13.3429 9.33262L13.2508 9.42324Z" fill="url(#paint0_linear_572_1099)"/>
<path id="Vector_2" d="M34.319 30.3467L29.0793 25.1826V24.817L34.3253 19.6529L34.4428 19.7201L40.6555 23.1998C42.4285 24.1873 42.4285 25.8123 40.6555 26.8061L34.4428 30.2795L34.319 30.3467Z" fill="url(#paint1_linear_572_1099)"/>
<path id="Vector_3" d="M34.4428 30.2796L29.0793 24.9999L13.2508 40.5827C13.8397 41.1921 14.8 41.2655 15.892 40.6562L34.4428 30.2796Z" fill="url(#paint2_linear_572_1099)"/>
<path id="Vector_4" d="M34.4428 19.7203L15.892 9.34376C14.8 8.74063 13.8397 8.81407 13.2508 9.42344L29.0793 25L34.4428 19.7203Z" fill="url(#paint3_linear_572_1099)"/>
</g>
<g id="GET IT ON">
<path id="G" d="M60.2127 12.805C60.2127 13.8487 59.8952 14.6847 59.2698 15.3081C58.5508 16.0472 57.6143 16.419 56.4667 16.419C55.3698 16.419 54.4333 16.0409 53.6651 15.2956C52.8952 14.5394 52.5111 13.6112 52.5111 12.5003C52.5111 11.3894 52.8952 10.4612 53.6651 9.71123C54.4333 8.95967 55.3698 8.58154 56.4667 8.58154C57.0127 8.58154 57.5333 8.69248 58.0302 8.89873C58.5254 9.10654 58.9286 9.38779 59.2206 9.73467L58.5571 10.394C58.0476 9.80186 57.354 9.50967 56.4667 9.50967C55.6667 9.50967 54.973 9.78467 54.3841 10.3394C53.8016 10.8956 53.5095 11.6159 53.5095 12.5003C53.5095 13.3847 53.8016 14.1112 54.3841 14.6675C54.973 15.2159 55.6667 15.4972 56.4667 15.4972C57.3159 15.4972 58.0302 15.2159 58.5936 14.6612C58.9651 14.294 59.1762 13.7878 59.2317 13.1409H56.4667V12.2378H60.1555C60.2 12.4331 60.2127 12.6222 60.2127 12.805Z" fill="black" stroke="black" stroke-width="0.16" stroke-miterlimit="10"/>
<path id="E" d="M66.0651 9.67373H62.6V12.0487H65.7238V12.9519H62.6V15.3269H66.0651V16.2472H61.619V8.75342H66.0651V9.67373Z" fill="black" stroke="black" stroke-width="0.16" stroke-miterlimit="10"/>
<path id="T" d="M70.1952 16.2472H69.2143V9.67373H67.0889V8.75342H72.3222V9.67373H70.1952V16.2472Z" fill="black" stroke="black" stroke-width="0.16" stroke-miterlimit="10"/>
<path id="I" d="M76.1095 16.2472V8.75342H77.0889V16.2472H76.1095Z" fill="black" stroke="black" stroke-width="0.16" stroke-miterlimit="10"/>
<path id="T_2" d="M81.4301 16.2472H80.4571V9.67373H78.3238V8.75342H83.5634V9.67373H81.4301V16.2472Z" fill="black" stroke="black" stroke-width="0.16" stroke-miterlimit="10"/>
<path id="O" d="M93.4714 15.2831C92.7206 16.0409 91.7905 16.419 90.6809 16.419C89.5651 16.419 88.6349 16.0409 87.8841 15.2831C87.1349 14.5269 86.7619 13.5987 86.7619 12.5003C86.7619 11.4019 87.1349 10.4737 87.8841 9.71748C88.6349 8.95967 89.5651 8.58154 90.6809 8.58154C91.7841 8.58154 92.7143 8.95967 93.4651 9.72373C94.2206 10.4862 94.5936 11.4081 94.5936 12.5003C94.5936 13.5987 94.2206 14.5269 93.4714 15.2831ZM88.6095 14.655C89.1746 15.2159 89.8619 15.4972 90.6809 15.4972C91.4936 15.4972 92.1873 15.2159 92.746 14.655C93.3095 14.094 93.5952 13.3737 93.5952 12.5003C93.5952 11.6269 93.3095 10.9065 92.746 10.3456C92.1873 9.78467 91.4936 9.50342 90.6809 9.50342C89.8619 9.50342 89.1746 9.78467 88.6095 10.3456C88.046 10.9065 87.7603 11.6269 87.7603 12.5003C87.7603 13.3737 88.046 14.094 88.6095 14.655Z" fill="black" stroke="black" stroke-width="0.16" stroke-miterlimit="10"/>
<path id="N" d="M95.9698 16.2472V8.75342H97.1603L100.862 14.5815H100.905L100.862 13.1409V8.75342H101.841V16.2472H100.819L96.9428 10.1315H96.9L96.9428 11.5784V16.2472H95.9698Z" fill="black" stroke="black" stroke-width="0.16" stroke-miterlimit="10"/>
</g>
<g id="Google Play">
<path id="Google Play_2" d="M86.5206 27.1904C83.5381 27.1904 81.1016 29.4248 81.1016 32.5076C81.1016 35.5654 83.5381 37.8232 86.5206 37.8232C89.5095 37.8232 91.946 35.5654 91.946 32.5076C91.946 29.4248 89.5095 27.1904 86.5206 27.1904ZM86.5206 35.7295C84.8841 35.7295 83.4762 34.3998 83.4762 32.5076C83.4762 30.5904 84.8841 29.2842 86.5206 29.2842C88.1571 29.2842 89.5714 30.5904 89.5714 32.5076C89.5714 34.3998 88.1571 35.7295 86.5206 35.7295ZM74.6968 27.1904C71.7079 27.1904 69.2778 29.4248 69.2778 32.5076C69.2778 35.5654 71.7079 37.8232 74.6968 37.8232C77.6841 37.8232 80.1159 35.5654 80.1159 32.5076C80.1159 29.4248 77.6841 27.1904 74.6968 27.1904ZM74.6968 35.7295C73.0587 35.7295 71.646 34.3998 71.646 32.5076C71.646 30.5904 73.0587 29.2842 74.6968 29.2842C76.3333 29.2842 77.7413 30.5904 77.7413 32.5076C77.7413 34.3998 76.3333 35.7295 74.6968 35.7295ZM60.627 28.8201V31.0795H66.1079C65.9476 32.342 65.519 33.2701 64.8619 33.917C64.0619 34.6982 62.8159 35.5654 60.627 35.5654C57.254 35.5654 54.6127 32.8857 54.6127 29.5654C54.6127 26.2451 57.254 23.5654 60.627 23.5654C62.4508 23.5654 63.7778 24.267 64.7571 25.1764L66.3746 23.5842C65.0048 22.2967 63.1825 21.3076 60.627 21.3076C56.0016 21.3076 52.1143 25.0123 52.1143 29.5654C52.1143 34.1186 56.0016 37.8232 60.627 37.8232C63.127 37.8232 65.0048 37.017 66.4809 35.5045C67.9936 34.0154 68.4651 31.9217 68.4651 30.2311C68.4651 29.7061 68.4206 29.2232 68.3413 28.8201H60.627ZM118.16 30.5717C117.714 29.3826 116.338 27.1904 113.535 27.1904C110.757 27.1904 108.444 29.3451 108.444 32.5076C108.444 35.4857 110.733 37.8232 113.802 37.8232C116.283 37.8232 117.714 36.3342 118.303 35.467L116.462 34.2592C115.848 35.1436 115.011 35.7295 113.802 35.7295C112.6 35.7295 111.738 35.1873 111.186 34.1186L118.41 31.1764L118.16 30.5717ZM110.795 32.342C110.733 30.292 112.413 29.242 113.616 29.242C114.559 29.242 115.359 29.7061 115.625 30.3701L110.795 32.342ZM104.924 37.4998H107.298V21.8748H104.924V37.4998ZM101.035 28.3748H100.956C100.422 27.7529 99.4048 27.1904 98.1159 27.1904C95.4111 27.1904 92.9381 29.5279 92.9381 32.5248C92.9381 35.5045 95.4111 37.8232 98.1159 37.8232C99.4048 37.8232 100.422 37.2561 100.956 36.6154H101.035V37.3779C101.035 39.4107 99.9317 40.5029 98.1524 40.5029C96.7016 40.5029 95.8016 39.4717 95.4301 38.6045L93.3651 39.4529C93.9603 40.8623 95.5365 42.5967 98.1524 42.5967C100.936 42.5967 103.286 40.9842 103.286 37.0607V27.5139H101.035V28.3748ZM98.319 35.7295C96.6825 35.7295 95.3127 34.3811 95.3127 32.5248C95.3127 30.6514 96.6825 29.2842 98.319 29.2842C99.9317 29.2842 101.203 30.6514 101.203 32.5248C101.203 34.3811 99.9317 35.7295 98.319 35.7295ZM129.278 21.8748H123.598V37.4998H125.967V31.5795H129.278C131.908 31.5795 134.487 29.7061 134.487 26.7264C134.487 23.7482 131.902 21.8748 129.278 21.8748ZM129.34 29.4061H125.967V24.0482H129.34C131.108 24.0482 132.117 25.4936 132.117 26.7264C132.117 27.9357 131.108 29.4061 129.34 29.4061ZM143.979 27.1607C142.268 27.1607 140.489 27.9045 139.757 29.5529L141.859 30.4201C142.311 29.5529 143.143 29.2717 144.022 29.2717C145.251 29.2717 146.497 29.9982 146.516 31.2811V31.4451C146.087 31.2014 145.17 30.8404 144.041 30.8404C141.778 30.8404 139.471 32.067 139.471 34.3561C139.471 36.4498 141.325 37.7982 143.409 37.7982C145.003 37.7982 145.883 37.0904 146.435 36.267H146.516V37.4748H148.803V31.4811C148.803 28.7107 146.702 27.1607 143.979 27.1607ZM143.694 35.7232C142.919 35.7232 141.84 35.3451 141.84 34.3998C141.84 33.1904 143.186 32.7264 144.351 32.7264C145.394 32.7264 145.883 32.9529 146.516 33.2514C146.33 34.6982 145.065 35.7232 143.694 35.7232ZM157.136 27.5029L154.414 34.2764H154.333L151.519 27.5029H148.965L153.194 36.9686L150.781 42.2357H153.256L159.771 27.5029H157.136ZM135.789 37.4998H138.163V21.8748H135.789V37.4998Z" fill="black"/>
</g>
</g>
<defs>
<linearGradient id="paint0_linear_572_1099" x1="27.6822" y1="39.1127" x2="6.70676" y2="17.8043" gradientUnits="userSpaceOnUse">
<stop stop-color="#00A0FF"/>
<stop offset="0.0066" stop-color="#00A1FF"/>
<stop offset="0.2601" stop-color="#00BEFF"/>
<stop offset="0.5122" stop-color="#00D2FF"/>
<stop offset="0.7604" stop-color="#00DFFF"/>
<stop offset="1" stop-color="#00E3FF"/>
</linearGradient>
<linearGradient id="paint1_linear_572_1099" x1="42.9643" y1="24.9981" x2="12.238" y2="24.9981" gradientUnits="userSpaceOnUse">
<stop stop-color="#FFE000"/>
<stop offset="0.4087" stop-color="#FFBD00"/>
<stop offset="0.7754" stop-color="#FFA500"/>
<stop offset="1" stop-color="#FF9C00"/>
</linearGradient>
<linearGradient id="paint2_linear_572_1099" x1="31.5263" y1="22.1298" x2="3.08199" y2="-6.76605" gradientUnits="userSpaceOnUse">
<stop stop-color="#FF3A44"/>
<stop offset="1" stop-color="#C31162"/>
</linearGradient>
<linearGradient id="paint3_linear_572_1099" x1="9.2664" y1="49.7798" x2="21.9681" y2="36.8766" gradientUnits="userSpaceOnUse">
<stop stop-color="#32A071"/>
<stop offset="0.0685" stop-color="#2DA771"/>
<stop offset="0.4762" stop-color="#15CF74"/>
<stop offset="0.8009" stop-color="#06E775"/>
<stop offset="1" stop-color="#00F076"/>
</linearGradient>
</defs>
</svg>
