<svg width="29" height="67" viewBox="0 0 29 67" fill="none" xmlns="http://www.w3.org/2000/svg">
<g id="Group">
<path id="Vector" d="M0.674927 66.5067L2.93116 60.2112C2.79187 61.0103 2.78249 61.8982 2.77396 62.7128C2.76638 63.3957 2.75975 64.0425 2.68489 64.4998C2.63941 64.6217 2.6157 64.7535 2.59675 64.905L3.09889 64.9671C3.0951 65.0326 3.08942 65.0833 3.08374 65.1227C2.44505 65.43 2.229 65.8803 2.19015 66.5067H0.674927ZM7.329 62.4162C7.23709 61.9609 7.05326 61.531 6.7017 61.2146C7.08359 60.6777 7.0761 59.8505 6.77191 58.4122L6.63067 57.7456L5.68688 57.6983L5.55698 57.6963C4.5203 57.6963 3.87315 58.0965 3.46662 58.7145L5.83842 52.097C6.29517 51.2274 6.70842 50.0731 7.00407 48.8414L7.61426 47.1431C8.32781 46.8979 8.64344 46.2285 8.88414 45.4977L15.5069 45.385L15.3866 44.4781C15.3089 43.8925 15.0322 43.3182 14.7649 42.7629C14.5839 42.3873 14.1595 41.5079 14.3385 41.3768L14.7972 41.0407L14.6446 40.5749C14.2618 39.408 13.2819 39.2818 12.8792 39.2818C12.3087 39.2818 11.8321 39.4989 11.4464 39.8308C11.2067 38.9034 11.1252 37.2517 11.4872 36.5935L11.8805 35.8797C12.2804 36.5576 12.9626 37.2115 13.8799 37.2115C14.257 37.2108 14.6152 37.0988 14.8881 36.8951C15.1051 36.7323 15.2605 36.5224 15.3619 36.2454C16.8516 36.5365 19.4708 36.9543 23.915 37.64C25.7032 37.9162 27.6505 38.2157 28.8843 38.4228L17.5831 54.9748C17.0382 53.4175 16.791 51.6488 17.0127 50.4311L17.4836 47.8365L15.0606 49.735C12.8536 51.4635 12.9256 54.2821 12.9882 56.7696C13.0289 58.3502 13.0706 59.9758 12.4603 60.8179L9.55783 59.5622L9.26598 61.4909C9.10678 61.4557 8.93808 61.4373 8.76372 61.4373C8.5922 61.4373 8.41411 61.4549 8.23312 61.4895L7.52241 61.6248L7.39633 62.1625C7.37548 62.2618 7.35175 62.345 7.329 62.4162ZM14.7156 30.0478C14.9772 29.155 15.3155 28.5187 15.614 28.1318L15.6671 28.6618C15.7211 29.2121 15.5002 29.3939 14.9686 29.8336C14.8833 29.9041 14.7981 29.976 14.7156 30.0478Z" fill="black" fill-opacity="0.1"/>
<path id="Vector_2" d="M16.4722 34.147C16.7963 33.9786 17.0977 33.8645 17.3867 33.7771V31.0232C16.4903 31.4446 15.5218 31.7722 16.4722 34.147Z" fill="black" fill-opacity="0.1"/>
<path id="Vector_3" d="M13.1567 2.05799C13.169 2.0348 13.1766 2.01165 13.1898 1.98706C13.1869 1.98706 13.1841 1.98706 13.1765 1.98706L13.1567 2.05799Z" fill="black" fill-opacity="0.1"/>
<path id="Vector_4" d="M13.6944 0.918457C13.5401 1.27643 13.3727 1.63159 13.1863 1.98604C13.4938 1.84793 13.6868 1.53434 13.6944 0.918457Z" fill="black" fill-opacity="0.1"/>
<path id="Vector_5" d="M20.9936 63.4201C20.8091 63.3377 20.6275 63.2785 20.4562 63.2355C20.4666 63.2207 20.477 63.2066 20.4865 63.1911C20.688 62.8832 20.7514 62.521 20.6691 62.0482C20.7798 62.0137 20.8877 61.972 20.9936 61.9255V63.4201Z" fill="black" fill-opacity="0.1"/>
</g>
</svg>
