<svg width="25" height="24" viewBox="0 0 25 24" fill="none" xmlns="http://www.w3.org/2000/svg">
<g id="Group">
<path id="Vector" d="M24.9788 12.0004C24.9788 18.0612 20.4875 23.0717 14.653 23.8848C14.1075 23.9605 13.5493 24 12.9828 24C12.3288 24 11.6866 23.9479 11.0612 23.847C5.34936 22.9271 0.98671 17.9729 0.98671 12.0004C0.98671 5.37294 6.35807 0 12.9836 0C19.6091 0 24.9805 5.37294 24.9805 12.0004H24.9788Z" fill="white"/>
<g id="layer1">
<path id="path1009" d="M5.85133 5.29297L11.3841 12.6923L5.81686 18.7085H7.07019L11.9448 13.4415L15.8829 18.7085H20.1472L14.3034 10.8929L19.4857 5.29297H18.2324L13.7436 10.1438L10.1165 5.29297H5.85216H5.85133ZM7.6939 6.21621H9.65247L18.303 17.7853H16.3444L7.6939 6.21621Z" fill="black"/>
</g>
</g>
</svg>
