<svg width="25" height="24" viewBox="0 0 25 24" fill="none" xmlns="http://www.w3.org/2000/svg">
<g id="Group">
<path id="Vector" d="M24.9734 12C24.9734 5.37258 19.6024 0 12.9769 0C6.35148 0 0.980469 5.37258 0.980469 12C0.980469 18.6274 6.35148 24 12.9769 24C19.6024 24 24.9734 18.6274 24.9734 12Z" fill="white"/>
<path id="Vector_2" d="M20.5311 9.5134C20.4367 8.60187 20.2335 7.59422 19.4858 7.06467C18.9067 6.65402 18.1455 6.63883 17.4348 6.63968C15.9326 6.63968 14.4296 6.64221 12.9274 6.64305C11.4825 6.64474 10.0377 6.64558 8.59279 6.64727C7.98921 6.64727 7.40249 6.60089 6.84191 6.86229C6.36057 7.08659 5.98376 7.51327 5.757 7.98801C5.44256 8.64825 5.37681 9.3962 5.33888 10.1264C5.26891 11.4562 5.2765 12.7894 5.35995 14.1183C5.42149 15.088 5.57744 16.1597 6.32685 16.7778C6.99112 17.3251 7.92851 17.3521 8.79004 17.3529C11.5247 17.3554 14.2602 17.358 16.9956 17.3597C17.3463 17.3605 17.7122 17.3538 18.0696 17.315C18.7726 17.2391 19.4428 17.0375 19.8946 16.5164C20.3507 15.9911 20.4679 15.26 20.537 14.5677C20.7056 12.888 20.7039 11.1923 20.5311 9.5134ZM11.346 14.3544V9.64495L15.4226 11.9992L11.346 14.3544Z" fill="black"/>
</g>
</svg>
