<svg width="24" height="24" viewBox="0 0 24 24" fill="none" xmlns="http://www.w3.org/2000/svg">
<g id="Group">
<path id="Vector" d="M23.9921 12.0004C23.9921 18.0612 19.5008 23.0717 13.6663 23.8848C13.1208 23.9605 12.5626 24 11.996 24C11.3421 24 10.6999 23.9479 10.0745 23.847C4.36266 22.9271 0 17.9729 0 12.0004C0 5.37294 5.37136 0 11.9969 0C18.6224 0 23.9938 5.37294 23.9938 12.0004H23.9921Z" fill="white"/>
<path id="Vector_2" d="M13.6661 9.63613V12.2503H16.899L16.3871 15.7717H13.6661V23.8849C13.1205 23.9606 12.5624 24.0001 11.9958 24.0001C11.3418 24.0001 10.6996 23.948 10.0742 23.8471V15.7717H7.09266V12.2503H10.0742V9.05175C10.0742 7.06737 11.6823 5.45801 13.6669 5.45801V5.45969C13.6728 5.45969 13.6778 5.45801 13.6837 5.45801H16.8998V8.50352H14.7983C14.1738 8.50352 13.6669 9.01055 13.6669 9.63529L13.6661 9.63613Z" fill="black"/>
</g>
</svg>
