<svg width="41" height="41" viewBox="0 0 41 41" fill="none" xmlns="http://www.w3.org/2000/svg">
<rect x="0.666687" y="0.5" width="40" height="40" rx="20" fill="#FBECEC"/>
<g clip-path="url(#clip0_88_1961)">
<path d="M29.6667 18.5C29.6667 25.5 20.6667 31.5 20.6667 31.5C20.6667 31.5 11.6667 25.5 11.6667 18.5C11.6667 16.1131 12.6149 13.8239 14.3027 12.136C15.9906 10.4482 18.2797 9.5 20.6667 9.5C23.0536 9.5 25.3428 10.4482 27.0306 12.136C28.7185 13.8239 29.6667 16.1131 29.6667 18.5Z" stroke="black" stroke-width="2" stroke-linecap="round" stroke-linejoin="round"/>
<path d="M20.6667 21.5C22.3235 21.5 23.6667 20.1569 23.6667 18.5C23.6667 16.8431 22.3235 15.5 20.6667 15.5C19.0098 15.5 17.6667 16.8431 17.6667 18.5C17.6667 20.1569 19.0098 21.5 20.6667 21.5Z" stroke="black" stroke-width="2" stroke-linecap="round" stroke-linejoin="round"/>
</g>
<defs>
<clipPath id="clip0_88_1961">
<rect width="24" height="24" fill="white" transform="translate(8.66669 8.5)"/>
</clipPath>
</defs>
</svg>
