<svg width="25" height="25" viewBox="0 0 25 25" fill="none" xmlns="http://www.w3.org/2000/svg">
<g id="map-pin" clip-path="url(#clip0_88_1962)">
<path id="Vector" d="M21.6667 10.5C21.6667 17.5 12.6667 23.5 12.6667 23.5C12.6667 23.5 3.66669 17.5 3.66669 10.5C3.66669 8.11305 4.6149 5.82387 6.30273 4.13604C7.99055 2.44821 10.2797 1.5 12.6667 1.5C15.0536 1.5 17.3428 2.44821 19.0306 4.13604C20.7185 5.82387 21.6667 8.11305 21.6667 10.5Z" stroke="black" stroke-width="2" stroke-linecap="round" stroke-linejoin="round"/>
<path id="Vector_2" d="M12.6667 13.5C14.3235 13.5 15.6667 12.1569 15.6667 10.5C15.6667 8.84315 14.3235 7.5 12.6667 7.5C11.0098 7.5 9.66669 8.84315 9.66669 10.5C9.66669 12.1569 11.0098 13.5 12.6667 13.5Z" stroke="black" stroke-width="2" stroke-linecap="round" stroke-linejoin="round"/>
</g>
<defs>
<clipPath id="clip0_88_1962">
<rect width="24" height="24" fill="white" transform="translate(0.666687 0.5)"/>
</clipPath>
</defs>
</svg>
