<svg width="16" height="16" viewBox="0 0 16 16" fill="none" xmlns="http://www.w3.org/2000/svg">
<g id="selectarrow">
<path id="Vector" fill-rule="evenodd" clip-rule="evenodd" d="M1.64601 4.64604C1.69245 4.59948 1.74763 4.56253 1.80838 4.53733C1.86912 4.51212 1.93424 4.49915 2.00001 4.49915C2.06578 4.49915 2.1309 4.51212 2.19164 4.53733C2.25239 4.56253 2.30756 4.59948 2.35401 4.64604L8.00001 10.293L13.646 4.64604C13.6925 4.59955 13.7477 4.56267 13.8084 4.53752C13.8692 4.51236 13.9343 4.49941 14 4.49941C14.0658 4.49941 14.1309 4.51236 14.1916 4.53752C14.2523 4.56267 14.3075 4.59955 14.354 4.64604C14.4005 4.69253 14.4374 4.74772 14.4625 4.80846C14.4877 4.86919 14.5006 4.9343 14.5006 5.00004C14.5006 5.06578 14.4877 5.13088 14.4625 5.19162C14.4374 5.25236 14.4005 5.30755 14.354 5.35404L8.35401 11.354C8.30756 11.4006 8.25239 11.4375 8.19164 11.4628C8.1309 11.488 8.06578 11.5009 8.00001 11.5009C7.93424 11.5009 7.86912 11.488 7.80838 11.4628C7.74763 11.4375 7.69245 11.4006 7.64601 11.354L1.64601 5.35404C1.59945 5.30759 1.5625 5.25242 1.5373 5.19167C1.51209 5.13093 1.49911 5.06581 1.49911 5.00004C1.49911 4.93427 1.51209 4.86915 1.5373 4.80841C1.5625 4.74766 1.59945 4.69248 1.64601 4.64604Z" fill="black"/>
</g>
</svg>
