<svg width="40" height="41" viewBox="0 0 40 41" fill="none" xmlns="http://www.w3.org/2000/svg">
<g id="Icon+bg">
<rect y="0.5" width="40" height="40" rx="20" fill="#FBECEC"/>
<path id="Vector" d="M29.8881 25.4201V28.4201C29.8892 28.6986 29.8322 28.9743 29.7206 29.2294C29.6091 29.4846 29.4454 29.7137 29.2402 29.902C29.035 30.0902 28.7927 30.2336 28.5289 30.3228C28.265 30.412 27.9855 30.4452 27.7081 30.4201C24.631 30.0857 21.6751 29.0342 19.0781 27.3501C16.6619 25.8148 14.6135 23.7663 13.0781 21.3501C11.3881 18.7413 10.3364 15.7711 10.0081 12.6801C9.98313 12.4036 10.016 12.1249 10.1046 11.8617C10.1932 11.5986 10.3357 11.3568 10.5229 11.1517C10.7101 10.9466 10.9379 10.7828 11.1919 10.6706C11.4459 10.5584 11.7205 10.5004 11.9981 10.5001H14.9981C15.4834 10.4953 15.9539 10.6672 16.3219 10.9836C16.6898 11.3001 16.9302 11.7395 16.9981 12.2201C17.1247 13.1802 17.3596 14.1228 17.6981 15.0301C17.8327 15.388 17.8618 15.777 17.782 16.151C17.7023 16.5249 17.517 16.8682 17.2481 17.1401L15.9781 18.4101C17.4017 20.9136 19.4746 22.9865 21.9781 24.4101L23.2481 23.1401C23.52 22.8712 23.8633 22.6859 24.2372 22.6062C24.6112 22.5264 25.0002 22.5556 25.3581 22.6901C26.2654 23.0286 27.2081 23.2635 28.1681 23.3901C28.6539 23.4586 29.0975 23.7033 29.4146 24.0776C29.7318 24.4519 29.9003 24.9297 29.8881 25.4201Z" stroke="black" stroke-width="2" stroke-linecap="round" stroke-linejoin="round"/>
</g>
</svg>
